<svg width="1000" height="1000" viewBox="0 0 1000 1000" fill="none" xmlns="http://www.w3.org/2000/svg">
<rect x="50" y="50" width="900" height="900" rx="100" fill="#3E46FF"/>
<path d="M281.8 356.8V640H193V356.8H281.8ZM479.906 412.8C505.773 412.8 525.906 421.467 540.306 438.8C554.973 456.133 562.306 479.6 562.306 509.2V640H473.906V520.4C473.906 509.733 470.973 501.333 465.106 495.2C459.506 488.8 451.906 485.6 442.306 485.6C432.44 485.6 424.706 488.8 419.106 495.2C413.506 501.333 410.706 509.733 410.706 520.4V640H321.906V414.4H410.706V448.8C417.64 438.133 426.84 429.467 438.306 422.8C450.04 416.133 463.906 412.8 479.906 412.8ZM823.213 356.8V427.2H748.013V640H659.213V427.2H584.813V356.8H823.213Z" fill="white"/>
</svg>
